<?xml version="1.0" encoding="utf-8"?>
<!-- Generator: Adobe Illustrator 16.0.4, SVG Export Plug-In . SVG Version: 6.00 Build 0)  -->
<!DOCTYPE svg PUBLIC "-//W3C//DTD SVG 1.1//EN" "http://www.w3.org/Graphics/SVG/1.1/DTD/svg11.dtd">
<svg version="1.1" id="Warstwa_1" xmlns="http://www.w3.org/2000/svg" xmlns:xlink="http://www.w3.org/1999/xlink" x="0px" y="0px"
	 width="960px" height="560px" viewBox="0 0 960 560" enable-background="new 0 0 960 560" xml:space="preserve">
<g>
	<g>
		<path fill="#333333" d="M103.042,333.026v32.997H87.611v-88.806h33.973c5.164,0,9.75,0.702,13.754,2.104
			c4.006,1.403,7.391,3.364,10.156,5.886s4.869,5.511,6.312,8.966c1.443,3.456,2.165,7.218,2.165,11.284
			c0,4.311-0.722,8.173-2.165,11.589c-1.443,3.415-3.547,6.303-6.312,8.66c-2.766,2.359-6.15,4.169-10.156,5.428
			c-4.004,1.262-8.59,1.892-13.754,1.892H103.042z M103.042,320.646h18.542c2.969,0,5.521-0.367,7.655-1.099
			c2.135-0.732,3.894-1.769,5.275-3.111c1.383-1.341,2.389-2.937,3.019-4.787c0.631-1.851,0.946-3.873,0.946-6.069
			c0-2.073-0.315-4.064-0.946-5.978c-0.63-1.91-1.636-3.607-3.019-5.092c-1.382-1.484-3.141-2.663-5.275-3.538
			c-2.135-0.874-4.687-1.312-7.655-1.312h-18.542V320.646z"/>
		<path fill="#333333" d="M166.048,282.891c0-2.276,0.722-4.168,2.165-5.673c1.443-1.504,3.508-2.257,6.191-2.257
			s4.757,0.753,6.222,2.257c1.463,1.505,2.195,3.396,2.195,5.673c0,2.236-0.732,4.097-2.195,5.58
			c-1.465,1.484-3.538,2.227-6.222,2.227s-4.748-0.742-6.191-2.227C166.77,286.987,166.048,285.127,166.048,282.891z
			 M181.785,366.023h-14.822v-65.994h14.822V366.023z"/>
		<path fill="#333333" d="M195.143,332.417c0-4.798,0.7-9.241,2.104-13.328c1.401-4.086,3.415-7.633,6.037-10.643
			c2.624-3.009,5.824-5.367,9.606-7.075s8.072-2.562,12.869-2.562c4.84,0,9.17,0.854,12.992,2.562
			c3.821,1.708,7.045,4.066,9.667,7.075c2.623,3.01,4.626,6.557,6.009,10.643c1.381,4.087,2.072,8.53,2.072,13.328v1.28
			c0,4.798-0.691,9.251-2.072,13.357c-1.383,4.107-3.386,7.654-6.009,10.644c-2.622,2.988-5.835,5.327-9.637,7.014
			c-3.803,1.688-8.102,2.531-12.899,2.531c-4.839,0-9.159-0.844-12.962-2.531c-3.802-1.687-7.013-4.025-9.637-7.014
			c-2.622-2.989-4.636-6.536-6.037-10.644c-1.404-4.106-2.104-8.56-2.104-13.357V332.417z M209.963,333.697
			c0,2.969,0.306,5.774,0.914,8.417c0.611,2.644,1.566,4.95,2.867,6.923c1.302,1.973,2.958,3.528,4.972,4.666
			c2.013,1.139,4.401,1.707,7.167,1.707c2.724,0,5.092-0.568,7.105-1.707c2.012-1.138,3.659-2.693,4.94-4.666
			c1.28-1.973,2.234-4.279,2.867-6.923c0.629-2.643,0.944-5.448,0.944-8.417v-1.28c0-2.929-0.315-5.703-0.944-8.326
			c-0.633-2.622-1.598-4.92-2.898-6.892c-1.302-1.973-2.958-3.548-4.971-4.728c-2.012-1.179-4.401-1.769-7.167-1.769
			c-2.765,0-5.133,0.59-7.105,1.769c-1.973,1.18-3.608,2.755-4.91,4.728c-1.301,1.972-2.256,4.27-2.867,6.892
			c-0.608,2.623-0.914,5.397-0.914,8.326V333.697z"/>
		<path fill="#333333" d="M287.606,283.988v16.041h11.65v10.979h-11.65v36.84c0,1.504,0.163,2.725,0.487,3.659
			c0.326,0.936,0.794,1.657,1.403,2.166c0.61,0.509,1.332,0.854,2.166,1.036c0.833,0.184,1.759,0.274,2.774,0.274
			c1.017,0,2.002-0.07,2.959-0.213c0.954-0.143,1.697-0.274,2.227-0.396v11.467c-1.181,0.325-2.553,0.641-4.117,0.945
			c-1.566,0.305-3.446,0.457-5.642,0.457c-2.439,0-4.707-0.326-6.802-0.977c-2.094-0.649-3.903-1.707-5.428-3.171
			c-1.525-1.464-2.715-3.375-3.567-5.733c-0.855-2.357-1.281-5.245-1.281-8.661v-37.693H261.93v-10.979h10.856v-16.041H287.606z"/>
		<path fill="#333333" d="M345.124,313.569c-0.976-0.162-1.963-0.283-2.959-0.365c-0.996-0.081-2.022-0.123-3.079-0.123
			c-3.579,0-6.486,0.693-8.724,2.074c-2.235,1.383-3.902,3.294-5,5.733v45.135h-14.821v-65.994h14.15l0.365,7.381
			c1.667-2.685,3.73-4.789,6.191-6.313c2.459-1.525,5.356-2.287,8.69-2.287c0.854,0,1.82,0.092,2.898,0.274
			c1.076,0.183,1.859,0.376,2.348,0.579L345.124,313.569z"/>
		<path fill="#333333" d="M412.52,327.659l-10.064,10.673v27.691h-15.431v-88.806h15.431v41.658l8.539-10.552l25.984-31.106h18.663
			l-32.997,39.341l34.888,49.465h-18.298L412.52,327.659z"/>
		<path fill="#333333" d="M459.912,332.417c0-4.798,0.7-9.241,2.104-13.328c1.402-4.086,3.416-7.633,6.037-10.643
			c2.624-3.009,5.825-5.367,9.607-7.075c3.781-1.708,8.071-2.562,12.869-2.562c4.839,0,9.169,0.854,12.991,2.562
			s7.045,4.066,9.668,7.075c2.623,3.01,4.625,6.557,6.008,10.643c1.382,4.087,2.072,8.53,2.072,13.328v1.28
			c0,4.798-0.69,9.251-2.072,13.357c-1.383,4.107-3.385,7.654-6.008,10.644c-2.623,2.988-5.836,5.327-9.637,7.014
			c-3.803,1.688-8.103,2.531-12.9,2.531c-4.839,0-9.159-0.844-12.961-2.531c-3.803-1.687-7.014-4.025-9.638-7.014
			c-2.621-2.989-4.635-6.536-6.037-10.644c-1.403-4.106-2.104-8.56-2.104-13.357V332.417z M474.732,333.697
			c0,2.969,0.305,5.774,0.914,8.417c0.61,2.644,1.565,4.95,2.867,6.923c1.301,1.973,2.958,3.528,4.972,4.666
			c2.013,1.139,4.4,1.707,7.166,1.707c2.725,0,5.093-0.568,7.106-1.707c2.012-1.138,3.659-2.693,4.939-4.666
			c1.281-1.973,2.236-4.279,2.867-6.923c0.63-2.643,0.945-5.448,0.945-8.417v-1.28c0-2.929-0.315-5.703-0.945-8.326
			c-0.631-2.622-1.597-4.92-2.896-6.892c-1.303-1.973-2.959-3.548-4.973-4.728c-2.012-1.179-4.4-1.769-7.166-1.769
			c-2.765,0-5.134,0.59-7.105,1.769c-1.972,1.18-3.609,2.755-4.91,4.728c-1.302,1.972-2.257,4.27-2.867,6.892
			c-0.609,2.623-0.914,5.397-0.914,8.326V333.697z"/>
		<path fill="#333333" d="M591.778,345.591l10.491-45.562h14.454l-17.993,65.994h-12.198l-14.149-45.317l-13.907,45.317h-12.199
			l-18.054-65.994h14.457l10.673,45.073l13.542-45.073h11.161L591.778,345.591z"/>
		<path fill="#333333" d="M666.067,366.023c-0.407-0.772-0.743-1.687-1.007-2.744c-0.265-1.057-0.498-2.196-0.701-3.416
			c-0.976,1.017-2.064,1.972-3.263,2.866c-1.201,0.896-2.522,1.678-3.966,2.349s-3.01,1.199-4.695,1.585
			c-1.688,0.387-3.487,0.58-5.398,0.58c-3.294,0-6.323-0.498-9.088-1.494c-2.766-0.996-5.135-2.379-7.105-4.147
			c-1.974-1.769-3.518-3.852-4.636-6.252c-1.119-2.399-1.678-5.002-1.678-7.807c0-3.538,0.671-6.669,2.014-9.394
			c1.341-2.723,3.293-5.001,5.855-6.831c2.561-1.83,5.702-3.223,9.423-4.178s7.959-1.434,12.717-1.434h9.332v-4.33
			c0-3.416-0.956-6.15-2.867-8.203c-1.912-2.054-4.819-3.081-8.722-3.081c-1.749,0-3.334,0.235-4.757,0.701
			c-1.424,0.468-2.634,1.099-3.63,1.891c-0.997,0.793-1.769,1.739-2.317,2.837s-0.823,2.277-0.823,3.537h-14.822
			c0-2.602,0.641-5.112,1.922-7.533c1.281-2.418,3.101-4.573,5.459-6.465c2.357-1.89,5.215-3.404,8.569-4.544
			c3.355-1.137,7.106-1.707,11.253-1.707c3.7,0,7.115,0.479,10.248,1.434c3.13,0.955,5.833,2.378,8.111,4.27
			c2.276,1.89,4.046,4.249,5.307,7.075c1.26,2.826,1.891,6.129,1.891,9.91v29.277c0,5.937,0.833,10.673,2.501,14.211v1.037H666.067z
			 M649.781,355.35c1.708,0,3.304-0.223,4.788-0.671c1.484-0.447,2.826-1.037,4.025-1.769s2.247-1.575,3.142-2.531
			c0.894-0.955,1.606-1.922,2.135-2.897v-12.442h-7.991c-5.488,0-9.615,0.956-12.381,2.867s-4.148,4.615-4.148,8.111
			c0,1.343,0.224,2.583,0.672,3.722c0.447,1.138,1.118,2.124,2.013,2.957c0.895,0.834,1.983,1.485,3.264,1.952
			C646.579,355.116,648.074,355.35,649.781,355.35z"/>
		<path fill="#333333" d="M709.981,366.023H695.16v-93.684h14.821V366.023z"/>
		<path fill="#333333" d="M763.107,348.092c0-1.057-0.174-2.044-0.52-2.958c-0.346-0.916-1.026-1.77-2.044-2.562
			c-1.016-0.794-2.449-1.535-4.299-2.227c-1.851-0.691-4.26-1.342-7.229-1.952c-3.537-0.731-6.761-1.646-9.667-2.745
			c-2.907-1.098-5.397-2.429-7.471-3.994c-2.075-1.565-3.69-3.405-4.85-5.521c-1.159-2.114-1.737-4.554-1.737-7.319
			c0-2.684,0.588-5.234,1.768-7.654c1.179-2.419,2.876-4.544,5.093-6.373c2.216-1.831,4.899-3.283,8.052-4.361
			c3.15-1.077,6.678-1.616,10.581-1.616c4.107,0,7.798,0.539,11.07,1.616c3.274,1.078,6.049,2.562,8.327,4.453
			c2.276,1.89,4.015,4.116,5.214,6.678c1.199,2.562,1.8,5.327,1.8,8.295h-14.821c0-1.259-0.244-2.489-0.731-3.689
			c-0.488-1.199-1.221-2.267-2.196-3.202s-2.187-1.678-3.629-2.227c-1.444-0.549-3.121-0.823-5.033-0.823
			c-1.87,0-3.497,0.234-4.88,0.702c-1.381,0.467-2.529,1.076-3.444,1.829c-0.915,0.752-1.596,1.626-2.044,2.622
			c-0.447,0.997-0.671,2.044-0.671,3.142s0.204,2.073,0.61,2.928c0.406,0.854,1.129,1.627,2.165,2.317
			c1.036,0.692,2.43,1.333,4.178,1.922c1.748,0.59,3.944,1.169,6.587,1.737c3.822,0.814,7.249,1.77,10.277,2.867
			c3.029,1.098,5.591,2.44,7.685,4.025c2.095,1.586,3.69,3.457,4.789,5.611c1.098,2.156,1.647,4.718,1.647,7.686
			c0,2.928-0.631,5.611-1.892,8.051c-1.26,2.439-3.06,4.544-5.397,6.312c-2.339,1.77-5.154,3.142-8.448,4.117
			c-3.293,0.976-6.952,1.464-10.978,1.464c-4.514,0-8.509-0.64-11.985-1.921c-3.477-1.28-6.396-2.959-8.753-5.032
			c-2.358-2.073-4.138-4.421-5.337-7.045c-1.199-2.622-1.799-5.296-1.799-8.021h14.395c0.121,2.034,0.589,3.742,1.402,5.123
			c0.813,1.383,1.85,2.501,3.11,3.355s2.683,1.474,4.27,1.859c1.586,0.387,3.212,0.58,4.88,0.58c3.903,0,6.871-0.741,8.904-2.226
			S763.107,350.491,763.107,348.092z"/>
		<path fill="#333333" d="M812.022,337.723l-6.587,6.771v21.53h-14.822v-93.684h14.822v54.039l4.635-5.794l18.237-20.555h17.811
			l-24.521,27.508l27.143,38.486h-17.14L812.022,337.723z"/>
		<path fill="#333333" d="M855.815,282.891c0-2.276,0.723-4.168,2.166-5.673c1.442-1.504,3.507-2.257,6.19-2.257
			s4.758,0.753,6.221,2.257c1.464,1.505,2.196,3.396,2.196,5.673c0,2.236-0.732,4.097-2.196,5.58
			c-1.463,1.484-3.537,2.227-6.221,2.227s-4.748-0.742-6.19-2.227C856.538,286.987,855.815,285.127,855.815,282.891z
			 M871.552,366.023H856.73v-65.994h14.821V366.023z"/>
	</g>
	<g>
		<path fill="#333333" d="M259.531,394.893h-12.175v32.961h-3v-32.961h-12.15v-2.561h27.325V394.893z"/>
		<path fill="#333333" d="M274.95,403.945c-0.618-0.114-1.277-0.172-1.976-0.172c-0.993,0-1.889,0.147-2.685,0.439
			c-0.797,0.293-1.499,0.704-2.11,1.232c-0.609,0.529-1.122,1.154-1.536,1.879c-0.416,0.724-0.745,1.524-0.989,2.402v18.127h-2.903
			v-26.396h2.855l0.048,4.195c0.716-1.447,1.688-2.59,2.916-3.428c1.229-0.837,2.735-1.257,4.525-1.257
			c0.357,0,0.724,0.033,1.099,0.099c0.373,0.064,0.649,0.139,0.829,0.219L274.95,403.945z"/>
		<path fill="#333333" d="M289.32,428.342c-1.725,0-3.311-0.321-4.758-0.964c-1.448-0.642-2.695-1.536-3.745-2.684
			c-1.049-1.146-1.866-2.508-2.451-4.087c-0.585-1.576-0.879-3.31-0.879-5.196v-1.049c0-2.033,0.305-3.875,0.915-5.526
			c0.609-1.65,1.436-3.057,2.477-4.22c1.04-1.163,2.24-2.062,3.598-2.696c1.358-0.635,2.794-0.952,4.307-0.952
			c1.675,0,3.163,0.302,4.465,0.902c1.301,0.603,2.396,1.439,3.28,2.514c0.888,1.073,1.559,2.351,2.014,3.831
			c0.455,1.479,0.684,3.098,0.684,4.854v1.78h-18.835v0.562c0,1.448,0.22,2.811,0.658,4.087c0.439,1.277,1.057,2.388,1.855,3.33
			c0.796,0.943,1.748,1.688,2.854,2.232c1.104,0.545,2.333,0.817,3.684,0.817c1.562,0,2.939-0.284,4.136-0.854
			c1.194-0.568,2.281-1.479,3.257-2.732l1.829,1.391c-0.439,0.635-0.948,1.236-1.524,1.806c-0.577,0.569-1.248,1.065-2.013,1.489
			c-0.766,0.422-1.627,0.756-2.586,1C291.58,428.22,290.507,428.342,289.32,428.342z M288.783,403.457
			c-1.106,0-2.131,0.212-3.074,0.634c-0.943,0.424-1.776,1.025-2.501,1.806c-0.724,0.78-1.317,1.72-1.78,2.818
			c-0.464,1.097-0.777,2.313-0.939,3.647h15.834v-0.317c-0.033-1.106-0.212-2.175-0.537-3.209c-0.326-1.032-0.801-1.947-1.427-2.744
			s-1.402-1.436-2.33-1.915C291.102,403.697,290.019,403.457,288.783,403.457z"/>
		<path fill="#333333" d="M307.691,401.457l0.097,4.513c0.456-0.748,0.98-1.431,1.574-2.049s1.257-1.147,1.988-1.587
			c0.731-0.438,1.521-0.776,2.367-1.012c0.845-0.236,1.739-0.354,2.683-0.354c1.318,0,2.496,0.18,3.538,0.537
			c1.041,0.358,1.924,0.928,2.646,1.708c0.725,0.78,1.277,1.785,1.659,3.013c0.383,1.229,0.573,2.713,0.573,4.453v17.175h-2.902
			v-17.199c0-1.367-0.146-2.505-0.439-3.415c-0.293-0.911-0.708-1.644-1.244-2.196c-0.536-0.554-1.191-0.947-1.964-1.184
			c-0.772-0.235-1.632-0.354-2.574-0.354c-1.041,0-1.984,0.175-2.83,0.523c-0.846,0.351-1.595,0.818-2.244,1.403
			c-0.651,0.586-1.212,1.257-1.684,2.013c-0.472,0.757-0.847,1.533-1.122,2.33v18.078h-2.904v-26.396H307.691z"/>
		<path fill="#333333" d="M342.579,428.342c-1.725,0-3.311-0.321-4.758-0.964c-1.448-0.642-2.695-1.536-3.745-2.684
			c-1.048-1.146-1.865-2.508-2.452-4.087c-0.585-1.576-0.877-3.31-0.877-5.196v-1.049c0-2.033,0.304-3.875,0.915-5.526
			c0.609-1.65,1.434-3.057,2.476-4.22c1.041-1.163,2.24-2.062,3.599-2.696c1.357-0.635,2.793-0.952,4.307-0.952
			c1.674,0,3.162,0.302,4.464,0.902c1.301,0.603,2.395,1.439,3.281,2.514c0.887,1.073,1.558,2.351,2.013,3.831
			c0.455,1.479,0.684,3.098,0.684,4.854v1.78H333.65v0.562c0,1.448,0.22,2.811,0.658,4.087c0.438,1.277,1.058,2.388,1.854,3.33
			c0.797,0.943,1.748,1.688,2.854,2.232c1.106,0.545,2.333,0.817,3.684,0.817c1.562,0,2.939-0.284,4.137-0.854
			c1.194-0.568,2.28-1.479,3.256-2.732l1.831,1.391c-0.439,0.635-0.948,1.236-1.524,1.806c-0.578,0.569-1.25,1.065-2.014,1.489
			c-0.766,0.422-1.627,0.756-2.587,1C344.84,428.22,343.766,428.342,342.579,428.342z M342.043,403.457
			c-1.107,0-2.133,0.212-3.074,0.634c-0.943,0.424-1.778,1.025-2.502,1.806c-0.723,0.78-1.316,1.72-1.779,2.818
			c-0.465,1.097-0.778,2.313-0.94,3.647h15.834v-0.317c-0.033-1.106-0.212-2.175-0.536-3.209c-0.326-1.032-0.802-1.947-1.428-2.744
			c-0.627-0.797-1.403-1.436-2.33-1.915C344.359,403.697,343.277,403.457,342.043,403.457z"/>
		<path fill="#333333" d="M370.367,403.945c-0.619-0.114-1.277-0.172-1.977-0.172c-0.991,0-1.887,0.147-2.683,0.439
			c-0.798,0.293-1.501,0.704-2.111,1.232c-0.609,0.529-1.122,1.154-1.536,1.879c-0.415,0.724-0.744,1.524-0.988,2.402v18.127h-2.903
			v-26.396h2.854l0.049,4.195c0.715-1.447,1.687-2.59,2.915-3.428c1.229-0.837,2.736-1.257,4.525-1.257
			c0.357,0,0.724,0.033,1.098,0.099c0.374,0.064,0.65,0.139,0.83,0.219L370.367,403.945z"/>
		<path fill="#333333" d="M408.354,414.924c0,1.984-0.224,3.798-0.671,5.44s-1.103,3.054-1.964,4.233
			c-0.863,1.179-1.915,2.098-3.159,2.756c-1.244,0.659-2.663,0.988-4.258,0.988c-1.887,0-3.517-0.337-4.891-1.013
			c-1.376-0.675-2.511-1.605-3.404-2.793v13.467h-2.903v-36.546h2.708l0.147,3.731c0.894-1.316,2.024-2.35,3.391-3.099
			c1.366-0.748,2.992-1.122,4.879-1.122c1.611,0,3.046,0.317,4.307,0.952c1.26,0.634,2.32,1.537,3.184,2.708
			c0.861,1.172,1.517,2.583,1.964,4.233s0.671,3.501,0.671,5.55V414.924z M405.426,414.411c0-1.529-0.157-2.96-0.476-4.294
			c-0.316-1.334-0.797-2.488-1.438-3.465c-0.644-0.976-1.461-1.744-2.452-2.305c-0.993-0.562-2.156-0.842-3.49-0.842
			c-1.057,0-1.992,0.139-2.805,0.415c-0.813,0.276-1.525,0.646-2.135,1.109c-0.61,0.464-1.131,1.001-1.561,1.61
			c-0.432,0.61-0.786,1.249-1.062,1.915v12.663c0.309,0.667,0.695,1.284,1.159,1.854c0.463,0.569,1.009,1.062,1.634,1.476
			c0.627,0.415,1.338,0.741,2.136,0.977c0.796,0.236,1.69,0.354,2.684,0.354c1.333,0,2.488-0.28,3.464-0.842
			c0.977-0.562,1.785-1.334,2.429-2.317c0.642-0.984,1.122-2.144,1.438-3.477c0.318-1.334,0.476-2.773,0.476-4.318V414.411z"/>
		<path fill="#333333" d="M427.018,403.945c-0.618-0.114-1.277-0.172-1.977-0.172c-0.992,0-1.888,0.147-2.684,0.439
			c-0.797,0.293-1.5,0.704-2.111,1.232c-0.608,0.529-1.122,1.154-1.535,1.879c-0.416,0.724-0.745,1.524-0.989,2.402v18.127h-2.902
			v-26.396h2.854l0.048,4.195c0.716-1.447,1.688-2.59,2.916-3.428c1.229-0.837,2.735-1.257,4.525-1.257
			c0.357,0,0.724,0.033,1.098,0.099c0.374,0.064,0.65,0.139,0.83,0.219L427.018,403.945z"/>
		<path fill="#333333" d="M429.53,414.265c0-1.919,0.281-3.691,0.841-5.318c0.562-1.627,1.354-3.029,2.38-4.209
			c1.024-1.179,2.26-2.102,3.708-2.769s3.058-1.001,4.831-1.001c1.805,0,3.436,0.334,4.891,1.001
			c1.456,0.667,2.696,1.59,3.722,2.769c1.024,1.18,1.812,2.582,2.366,4.209c0.553,1.627,0.829,3.399,0.829,5.318v0.805
			c0,1.92-0.276,3.693-0.829,5.318c-0.554,1.627-1.342,3.03-2.366,4.21c-1.025,1.179-2.262,2.098-3.709,2.756
			c-1.448,0.659-3.065,0.988-4.855,0.988c-1.789,0-3.407-0.329-4.854-0.988c-1.448-0.658-2.688-1.577-3.721-2.756
			c-1.033-1.18-1.829-2.583-2.392-4.21c-0.56-1.625-0.841-3.398-0.841-5.318V414.265z M432.458,415.069
			c0,1.448,0.195,2.827,0.586,4.136c0.39,1.31,0.959,2.457,1.708,3.44c0.747,0.984,1.674,1.769,2.781,2.354
			c1.105,0.585,2.374,0.878,3.805,0.878c1.432,0,2.696-0.293,3.795-0.878c1.097-0.586,2.02-1.37,2.769-2.354
			c0.747-0.983,1.317-2.131,1.708-3.44c0.39-1.309,0.585-2.688,0.585-4.136v-0.805c0-1.415-0.195-2.776-0.585-4.086
			c-0.391-1.31-0.961-2.46-1.708-3.453c-0.749-0.991-1.68-1.785-2.794-2.378c-1.114-0.594-2.387-0.891-3.817-0.891
			c-1.415,0-2.672,0.297-3.769,0.891c-1.1,0.593-2.022,1.387-2.77,2.378c-0.749,0.993-1.318,2.144-1.708,3.453
			c-0.391,1.31-0.586,2.671-0.586,4.086V415.069z"/>
		<path fill="#333333" d="M457.953,414.411c0-2.049,0.232-3.899,0.695-5.55c0.464-1.65,1.135-3.062,2.013-4.233
			c0.878-1.171,1.948-2.074,3.208-2.708c1.261-0.635,2.688-0.952,4.282-0.952c1.886,0,3.505,0.379,4.855,1.135
			c1.349,0.757,2.463,1.81,3.342,3.16l0.146-3.806h2.733v25.934c0,1.708-0.253,3.24-0.757,4.599
			c-0.505,1.358-1.216,2.509-2.134,3.452c-0.919,0.943-2.03,1.667-3.33,2.172c-1.303,0.504-2.758,0.756-4.367,0.756
			c-0.83,0-1.676-0.094-2.538-0.28c-0.862-0.188-1.695-0.468-2.5-0.843c-0.807-0.373-1.566-0.841-2.282-1.402
			s-1.341-1.225-1.878-1.988l1.634-1.756c1.074,1.317,2.212,2.28,3.416,2.891c1.203,0.609,2.521,0.915,3.953,0.915
			c1.252,0,2.362-0.191,3.329-0.573c0.968-0.383,1.785-0.937,2.453-1.659c0.665-0.725,1.174-1.603,1.524-2.635
			c0.35-1.033,0.523-2.209,0.523-3.525v-3.074c-0.877,1.22-1.991,2.176-3.342,2.866c-1.351,0.691-2.96,1.037-4.83,1.037
			c-1.578,0-2.993-0.329-4.245-0.988c-1.254-0.658-2.318-1.577-3.196-2.756c-0.878-1.18-1.549-2.591-2.013-4.233
			c-0.463-1.643-0.695-3.456-0.695-5.44V414.411z M460.905,414.924c0,1.545,0.154,2.98,0.464,4.306
			c0.308,1.326,0.78,2.477,1.414,3.452c0.635,0.977,1.437,1.74,2.403,2.293c0.968,0.554,2.118,0.83,3.453,0.83
			c1.007,0,1.914-0.122,2.72-0.366c0.805-0.244,1.517-0.581,2.135-1.013c0.617-0.431,1.154-0.939,1.61-1.524
			c0.455-0.586,0.845-1.228,1.17-1.927v-12.272c-0.276-0.683-0.63-1.337-1.061-1.964c-0.431-0.626-0.951-1.179-1.561-1.658
			c-0.611-0.48-1.322-0.863-2.136-1.147s-1.757-0.427-2.83-0.427c-1.35,0-2.513,0.28-3.489,0.842
			c-0.976,0.561-1.78,1.329-2.415,2.305c-0.634,0.977-1.106,2.131-1.414,3.465c-0.31,1.334-0.464,2.765-0.464,4.294V414.924z"/>
		<path fill="#333333" d="M499.038,403.945c-0.619-0.114-1.278-0.172-1.977-0.172c-0.993,0-1.887,0.147-2.684,0.439
			c-0.797,0.293-1.5,0.704-2.11,1.232c-0.609,0.529-1.122,1.154-1.536,1.879c-0.417,0.724-0.745,1.524-0.989,2.402v18.127h-2.903
			v-26.396h2.854l0.049,4.195c0.716-1.447,1.688-2.59,2.915-3.428c1.229-0.837,2.736-1.257,4.526-1.257
			c0.356,0,0.724,0.033,1.099,0.099c0.373,0.064,0.649,0.139,0.828,0.219L499.038,403.945z"/>
		<path fill="#333333" d="M519.336,427.854c-0.163-0.455-0.289-1.012-0.378-1.671c-0.09-0.658-0.15-1.329-0.184-2.013
			c-0.438,0.569-0.96,1.106-1.561,1.61c-0.603,0.505-1.277,0.944-2.025,1.317c-0.748,0.374-1.57,0.675-2.464,0.902
			c-0.895,0.228-1.863,0.342-2.903,0.342c-1.286,0-2.453-0.188-3.501-0.561c-1.05-0.374-1.943-0.898-2.683-1.574
			c-0.741-0.675-1.315-1.468-1.721-2.379c-0.407-0.91-0.61-1.902-0.61-2.977c0-1.284,0.276-2.443,0.83-3.476
			c0.552-1.032,1.349-1.911,2.391-2.635c1.04-0.725,2.305-1.276,3.794-1.659c1.486-0.383,3.159-0.574,5.013-0.574h5.417v-3.001
			c0-1.886-0.583-3.37-1.744-4.452c-1.163-1.081-2.859-1.622-5.088-1.622c-1.024,0-1.968,0.139-2.829,0.414
			c-0.863,0.277-1.606,0.659-2.232,1.146c-0.626,0.488-1.114,1.055-1.463,1.696c-0.351,0.643-0.526,1.33-0.526,2.062l-2.927-0.024
			c0-0.991,0.243-1.951,0.731-2.879c0.488-0.927,1.176-1.752,2.061-2.477c0.888-0.723,1.952-1.305,3.197-1.744
			c1.244-0.439,2.623-0.659,4.135-0.659c1.399,0,2.688,0.18,3.867,0.537c1.179,0.358,2.191,0.896,3.038,1.61
			c0.845,0.716,1.503,1.61,1.976,2.685c0.472,1.072,0.707,2.325,0.707,3.756v12.785c0,0.455,0.016,0.926,0.049,1.414
			c0.032,0.488,0.086,0.96,0.158,1.415c0.074,0.456,0.159,0.891,0.257,1.306c0.098,0.414,0.211,0.776,0.341,1.086v0.292H519.336z
			 M510.162,425.756c1.057,0,2.037-0.134,2.941-0.402c0.901-0.269,1.719-0.639,2.451-1.11c0.731-0.472,1.365-1.021,1.902-1.646
			s0.968-1.306,1.294-2.037v-5.807h-5.002c-1.497,0-2.834,0.134-4.013,0.402c-1.181,0.269-2.177,0.655-2.989,1.158
			c-0.813,0.506-1.436,1.119-1.866,1.843s-0.646,1.542-0.646,2.451c0,0.716,0.138,1.388,0.414,2.014s0.672,1.171,1.185,1.634
			c0.512,0.464,1.134,0.83,1.865,1.099C508.431,425.622,509.251,425.756,510.162,425.756z"/>
		<path fill="#333333" d="M532.096,401.457l0.098,4.293c0.439-0.715,0.948-1.37,1.525-1.964c0.576-0.594,1.223-1.098,1.938-1.513
			s1.496-0.735,2.343-0.964c0.845-0.228,1.756-0.342,2.732-0.342c1.935,0,3.594,0.407,4.978,1.221
			c1.381,0.812,2.366,2.115,2.951,3.903c0.423-0.731,0.932-1.411,1.524-2.037c0.595-0.626,1.269-1.166,2.025-1.622
			s1.59-0.813,2.501-1.074c0.91-0.26,1.895-0.391,2.952-0.391c1.366,0,2.586,0.183,3.659,0.55c1.073,0.366,1.98,0.943,2.721,1.731
			c0.739,0.789,1.305,1.794,1.695,3.014s0.586,2.684,0.586,4.392v17.199h-2.929V410.63c0-1.399-0.155-2.558-0.463-3.478
			c-0.31-0.918-0.749-1.65-1.317-2.195c-0.57-0.545-1.248-0.923-2.036-1.134c-0.79-0.211-1.657-0.317-2.599-0.317
			c-1.237,0.017-2.318,0.239-3.246,0.671c-0.927,0.432-1.711,0.976-2.353,1.635c-0.644,0.658-1.145,1.396-1.502,2.208
			c-0.357,0.813-0.57,1.603-0.634,2.366v17.468h-2.928V410.41c0-1.318-0.155-2.415-0.464-3.294c-0.31-0.878-0.748-1.586-1.317-2.123
			c-0.57-0.536-1.248-0.918-2.036-1.146c-0.79-0.227-1.665-0.341-2.624-0.341c-1.106,0-2.082,0.175-2.927,0.523
			c-0.847,0.351-1.582,0.818-2.207,1.403c-0.627,0.586-1.145,1.253-1.551,2.001c-0.406,0.749-0.731,1.521-0.976,2.317v18.103h-2.928
			v-26.396H532.096z"/>
		<path fill="#333333" d="M572.106,414.265c0-1.919,0.281-3.691,0.842-5.318c0.562-1.627,1.354-3.029,2.379-4.209
			c1.024-1.179,2.261-2.102,3.708-2.769s3.059-1.001,4.831-1.001c1.806,0,3.437,0.334,4.891,1.001
			c1.457,0.667,2.697,1.59,3.722,2.769c1.024,1.18,1.813,2.582,2.366,4.209s0.83,3.399,0.83,5.318v0.805
			c0,1.92-0.277,3.693-0.83,5.318c-0.553,1.627-1.342,3.03-2.366,4.21c-1.024,1.179-2.261,2.098-3.708,2.756
			c-1.449,0.659-3.066,0.988-4.855,0.988s-3.408-0.329-4.854-0.988c-1.448-0.658-2.688-1.577-3.722-2.756
			c-1.032-1.18-1.828-2.583-2.391-4.21c-0.561-1.625-0.842-3.398-0.842-5.318V414.265z M575.035,415.069
			c0,1.448,0.194,2.827,0.585,4.136c0.391,1.31,0.959,2.457,1.707,3.44c0.748,0.984,1.676,1.769,2.782,2.354
			c1.105,0.585,2.374,0.878,3.806,0.878c1.431,0,2.695-0.293,3.795-0.878c1.096-0.586,2.02-1.37,2.769-2.354
			c0.747-0.983,1.316-2.131,1.707-3.44c0.391-1.309,0.586-2.688,0.586-4.136v-0.805c0-1.415-0.195-2.776-0.586-4.086
			s-0.96-2.46-1.707-3.453c-0.749-0.991-1.68-1.785-2.794-2.378c-1.113-0.594-2.388-0.891-3.818-0.891
			c-1.415,0-2.672,0.297-3.769,0.891c-1.099,0.593-2.022,1.387-2.771,2.378c-0.748,0.993-1.316,2.144-1.707,3.453
			s-0.585,2.671-0.585,4.086V415.069z"/>
		<path fill="#333333" d="M608.02,421.779l0.439,2.269l0.585-2.391l6.343-20.2h2.489l6.271,20.029l0.683,2.781l0.562-2.562
			l5.416-20.249h3.025l-7.686,26.396h-2.488l-6.782-20.933l-0.317-1.439l-0.317,1.464l-6.66,20.908h-2.488l-7.661-26.396h3.001
			L608.02,421.779z"/>
		<path fill="#333333" d="M656.032,427.854c-0.162-0.455-0.288-1.012-0.377-1.671c-0.09-0.658-0.151-1.329-0.184-2.013
			c-0.439,0.569-0.96,1.106-1.562,1.61c-0.602,0.505-1.277,0.944-2.024,1.317c-0.748,0.374-1.57,0.675-2.464,0.902
			c-0.896,0.228-1.863,0.342-2.903,0.342c-1.286,0-2.453-0.188-3.501-0.561c-1.05-0.374-1.944-0.898-2.685-1.574
			c-0.739-0.675-1.313-1.468-1.72-2.379c-0.406-0.91-0.61-1.902-0.61-2.977c0-1.284,0.276-2.443,0.83-3.476
			c0.553-1.032,1.35-1.911,2.392-2.635c1.04-0.725,2.305-1.276,3.794-1.659c1.486-0.383,3.158-0.574,5.013-0.574h5.417v-3.001
			c0-1.886-0.583-3.37-1.744-4.452c-1.164-1.081-2.859-1.622-5.088-1.622c-1.024,0-1.969,0.139-2.829,0.414
			c-0.863,0.277-1.607,0.659-2.232,1.146c-0.627,0.488-1.114,1.055-1.464,1.696c-0.351,0.643-0.525,1.33-0.525,2.062l-2.928-0.024
			c0-0.991,0.244-1.951,0.732-2.879c0.487-0.927,1.175-1.752,2.061-2.477c0.887-0.723,1.951-1.305,3.197-1.744
			c1.244-0.439,2.622-0.659,4.135-0.659c1.398,0,2.688,0.18,3.867,0.537c1.179,0.358,2.191,0.896,3.037,1.61
			c0.846,0.716,1.504,1.61,1.977,2.685c0.472,1.072,0.707,2.325,0.707,3.756v12.785c0,0.455,0.016,0.926,0.049,1.414
			c0.032,0.488,0.086,0.96,0.158,1.415c0.074,0.456,0.159,0.891,0.257,1.306c0.097,0.414,0.21,0.776,0.341,1.086v0.292H656.032z
			 M646.859,425.756c1.057,0,2.037-0.134,2.941-0.402c0.901-0.269,1.719-0.639,2.45-1.11c0.732-0.472,1.366-1.021,1.903-1.646
			s0.968-1.306,1.294-2.037v-5.807h-5.002c-1.498,0-2.835,0.134-4.013,0.402c-1.181,0.269-2.177,0.655-2.989,1.158
			c-0.814,0.506-1.436,1.119-1.867,1.843c-0.431,0.724-0.646,1.542-0.646,2.451c0,0.716,0.137,1.388,0.414,2.014
			c0.276,0.626,0.671,1.171,1.184,1.634c0.512,0.464,1.135,0.83,1.866,1.099C645.128,425.622,645.948,425.756,646.859,425.756z"/>
		<path fill="#333333" d="M668.915,401.457l0.097,4.513c0.455-0.748,0.98-1.431,1.573-2.049c0.595-0.618,1.258-1.147,1.989-1.587
			c0.731-0.438,1.521-0.776,2.367-1.012c0.845-0.236,1.739-0.354,2.683-0.354c1.318,0,2.497,0.18,3.538,0.537
			c1.04,0.358,1.924,0.928,2.646,1.708c0.724,0.78,1.277,1.785,1.659,3.013c0.383,1.229,0.574,2.713,0.574,4.453v17.175h-2.903
			v-17.199c0-1.367-0.147-2.505-0.439-3.415c-0.293-0.911-0.708-1.644-1.244-2.196c-0.536-0.554-1.191-0.947-1.964-1.184
			c-0.773-0.235-1.632-0.354-2.574-0.354c-1.041,0-1.985,0.175-2.83,0.523c-0.846,0.351-1.595,0.818-2.244,1.403
			c-0.651,0.586-1.212,1.257-1.684,2.013c-0.473,0.757-0.847,1.533-1.123,2.33v18.078h-2.903v-26.396H668.915z"/>
		<path fill="#333333" d="M693.409,393.82c0-0.553,0.179-1.021,0.537-1.403c0.357-0.382,0.846-0.572,1.464-0.572
			c0.617,0,1.109,0.19,1.476,0.572c0.365,0.383,0.549,0.851,0.549,1.403s-0.184,1.016-0.549,1.391
			c-0.366,0.373-0.858,0.561-1.476,0.561c-0.618,0-1.106-0.188-1.464-0.561C693.588,394.836,693.409,394.373,693.409,393.82z
			 M696.85,427.854h-2.928v-26.396h2.928V427.854z"/>
		<path fill="#333333" d="M721.441,427.854c-0.163-0.455-0.288-1.012-0.377-1.671c-0.091-0.658-0.151-1.329-0.184-2.013
			c-0.439,0.569-0.961,1.106-1.562,1.61c-0.603,0.505-1.277,0.944-2.024,1.317c-0.749,0.374-1.57,0.675-2.465,0.902
			c-0.896,0.228-1.863,0.342-2.903,0.342c-1.285,0-2.452-0.188-3.501-0.561c-1.05-0.374-1.943-0.898-2.684-1.574
			c-0.74-0.675-1.313-1.468-1.72-2.379c-0.407-0.91-0.61-1.902-0.61-2.977c0-1.284,0.276-2.443,0.829-3.476s1.351-1.911,2.392-2.635
			c1.04-0.725,2.306-1.276,3.794-1.659c1.487-0.383,3.158-0.574,5.013-0.574h5.417v-3.001c0-1.886-0.582-3.37-1.744-4.452
			c-1.163-1.081-2.859-1.622-5.088-1.622c-1.024,0-1.968,0.139-2.829,0.414c-0.863,0.277-1.606,0.659-2.232,1.146
			c-0.626,0.488-1.114,1.055-1.464,1.696c-0.351,0.643-0.524,1.33-0.524,2.062l-2.928-0.024c0-0.991,0.244-1.951,0.731-2.879
			c0.488-0.927,1.175-1.752,2.062-2.477c0.887-0.723,1.951-1.305,3.196-1.744c1.244-0.439,2.623-0.659,4.136-0.659
			c1.397,0,2.688,0.18,3.866,0.537c1.18,0.358,2.191,0.896,3.038,1.61c0.845,0.716,1.503,1.61,1.977,2.685
			c0.471,1.072,0.707,2.325,0.707,3.756v12.785c0,0.455,0.015,0.926,0.049,1.414c0.032,0.488,0.085,0.96,0.157,1.415
			c0.074,0.456,0.159,0.891,0.257,1.306c0.098,0.414,0.211,0.776,0.342,1.086v0.292H721.441z M712.269,425.756
			c1.057,0,2.036-0.134,2.94-0.402c0.901-0.269,1.719-0.639,2.451-1.11c0.731-0.472,1.366-1.021,1.902-1.646
			c0.537-0.626,0.968-1.306,1.294-2.037v-5.807h-5.001c-1.498,0-2.835,0.134-4.014,0.402c-1.18,0.269-2.176,0.655-2.988,1.158
			c-0.814,0.506-1.437,1.119-1.868,1.843c-0.43,0.724-0.646,1.542-0.646,2.451c0,0.716,0.137,1.388,0.415,2.014
			c0.276,0.626,0.67,1.171,1.184,1.634c0.512,0.464,1.134,0.83,1.866,1.099C710.536,425.622,711.356,425.756,712.269,425.756z"/>
	</g>
	<g>
		<g>
			<linearGradient id="SVGID_1_" gradientUnits="userSpaceOnUse" x1="359.3853" y1="194.7251" x2="359.397" y2="194.7251">
				<stop  offset="0" style="stop-color:#FFFFFF;stop-opacity:0"/>
				<stop  offset="0.8235" style="stop-color:#FFFFFF"/>
			</linearGradient>
			<path fill="url(#SVGID_1_)" d="M359.385,194.722c0.003,0.003,0.008,0.004,0.012,0.007
				C359.393,194.726,359.388,194.725,359.385,194.722z"/>
			<linearGradient id="SVGID_2_" gradientUnits="userSpaceOnUse" x1="356.6226" y1="230.1519" x2="403.0796" y2="230.1519">
				<stop  offset="0" style="stop-color:#FBD72B"/>
				<stop  offset="1" style="stop-color:#F9484A"/>
			</linearGradient>
			<path fill="url(#SVGID_2_)" d="M356.623,221.554c21.044,14.121,44.268,29.706,44.812,30.08c0.377-2.142,0.83-3.878,1.488-13.408
				c0.102-2.084,0.152-4.167,0.157-6.248c-9.843-8.191-19.717-16.708-27.278-23.308L356.623,221.554z"/>
			<linearGradient id="SVGID_3_" gradientUnits="userSpaceOnUse" x1="375.7915" y1="208.6826" x2="375.8125" y2="208.6826">
				<stop  offset="0" style="stop-color:#FFFFFF;stop-opacity:0"/>
				<stop  offset="0.8235" style="stop-color:#FFFFFF"/>
			</linearGradient>
			<line fill="url(#SVGID_3_)" x1="375.812" y1="208.675" x2="375.792" y2="208.689"/>
			<linearGradient id="SVGID_4_" gradientUnits="userSpaceOnUse" x1="361.8989" y1="196.4199" x2="361.9009" y2="196.4199">
				<stop  offset="0" style="stop-color:#FFFFFF;stop-opacity:0"/>
				<stop  offset="0.8235" style="stop-color:#FFFFFF"/>
			</linearGradient>
			<path fill="url(#SVGID_4_)" d="M361.901,196.42c-0.001-0.001-0.002-0.001-0.002-0.001
				C361.9,196.419,361.9,196.419,361.901,196.42z"/>
		</g>
		<linearGradient id="SVGID_5_" gradientUnits="userSpaceOnUse" x1="569.5166" y1="127.8066" x2="461.672" y2="185.1487">
			<stop  offset="0.1581" style="stop-color:#F9484A"/>
			<stop  offset="1" style="stop-color:#FBD72B"/>
		</linearGradient>
		<path fill="url(#SVGID_5_)" d="M456.306,175.058l21.603,18.774c0,0,18.414,17.951,46.9,7.76l41.442-79.925l-124.024,23.806
			l20.357,17.899L456.306,175.058z"/>
		<path opacity="0.4" d="M524.825,201.581l0.019-0.045c-2.301,0.353-4.604,0.761-7.006,0.761c-10.334,0-19.292-3.3-27.673-8.827
			c-1.354-0.75-5.307-3.82-5.307-3.82l-5.794-5.024l-14.774-12.589l-4.419-3.586c0,0-0.892,1.643-1.869,3.449l-1.697,3.158
			l21.603,18.774C477.909,193.832,496.363,211.737,524.825,201.581z"/>
		<linearGradient id="SVGID_6_" gradientUnits="userSpaceOnUse" x1="317.292" y1="195.7373" x2="524.8105" y2="195.7373">
			<stop  offset="0.2978" style="stop-color:#FBD72B"/>
			<stop  offset="0.3566" style="stop-color:#FBD22C"/>
			<stop  offset="1" style="stop-color:#F9484A"/>
		</linearGradient>
		<path fill="url(#SVGID_6_)" d="M477.909,193.832L440.937,161.7c-6.259-5.424-13.478-10.431-13.478-10.431
			s-21.031-15.899-54.206-9.265c-43.564,8.388-55.961,48.402-55.961,48.402c9.639-3.599,18.118-3.789,25.054-2.591
			c8.654,1.766,15.351,5.635,18.174,7.478c1.497,1.073,7.726,6.488,7.726,6.488s21.344,19.154,40.894,35.199
			c16.128,11.746,31.965,13.312,31.965,13.312c4.081,0.512,7.978,0.766,11.702,0.795c55.962,0.502,71.928-49.259,72.004-49.494
			C496.269,211.858,477.909,193.832,477.909,193.832z"/>
		<g>
			<linearGradient id="SVGID_7_" gradientUnits="userSpaceOnUse" x1="298.8154" y1="230.8584" x2="364.1529" y2="190.021">
				<stop  offset="0" style="stop-color:#FBD72B"/>
				<stop  offset="1" style="stop-color:#F9484A"/>
			</linearGradient>
			<path fill="url(#SVGID_7_)" d="M361.884,196.404c0,0-21.423-16.478-44.584-5.994c-5.547,15.263-7.743,31.263-6.97,47.875
				c0.287,6.135,1.461,13.289,1.471,13.348l64.011-42.958C367.561,201.475,361.884,196.404,361.884,196.404z"/>
		</g>
		<linearGradient id="SVGID_8_" gradientUnits="userSpaceOnUse" x1="317.2769" y1="208.6279" x2="524.8105" y2="208.6279">
			<stop  offset="0.0551" style="stop-color:#FBD72B"/>
			<stop  offset="1" style="stop-color:#F9484A"/>
		</linearGradient>
		<path fill="url(#SVGID_8_)" d="M524.811,201.593c-0.083,0.25-18.986,56.835-83.706,48.698c0,0-15.837-1.566-31.965-13.312
			c-21.522-17.593-47.256-40.575-47.256-40.575s-21.438-16.489-44.607-5.983c0,0,10.326-17.12,41.424-23.035
			c11.297-1.627,15.552-1.513,24.232-0.344c8.68,1.167,14.438,3.672,14.438,3.672s9.807,3.463,17.192,8.831
			c6.489,4.938,9.036,7.4,16.181,14.756c0,0,8.356,7.876,13.947,10.631C450.284,207.686,486.107,228.821,524.811,201.593z"/>
		<g opacity="0.4">
			<path d="M361.884,196.404c0,0-21.389-16.45-44.527-6.018c2.326-0.477,4.229-0.351,6.599-0.351
				c10.339,0,19.892,1.008,27.604,6.742c0.479,0.352,0.938,0.704,1.395,1.076c0,0,1.785,1.489,2.633,2.274l1.351,1.173l5.797,5.023
				l32.75,28.053l7.279,5.836c0,0,0.167-1.299,0.252-4.178c0.026-0.877,0.045-2.353,0.067-4.053
				C383.076,215.331,361.884,196.404,361.884,196.404z"/>
			<path d="M325.044,182.148l-0.097-0.013l-0.382,0.413C324.721,182.416,324.883,182.283,325.044,182.148z"/>
			<path d="M317.315,190.359l-0.039,0.041c0.005-0.001,0.01-0.001,0.013-0.002C317.297,190.388,317.305,190.376,317.315,190.359z"/>
		</g>
	</g>
</g>
</svg>
