<svg id="Layer_1" enable-background="new 0 0 512 512" height="512" viewBox="0 0 512 512" width="512" xmlns="http://www.w3.org/2000/svg"><g clip-rule="evenodd" fill-rule="evenodd"><path d="m26.046 339.458c.835-3.716 4.528-6.051 8.244-5.216 3.716.836 6.051 4.528 5.216 8.244-1.556 6.868-2.062 13.336-1.437 19.292.586 5.58 2.177 10.723 4.835 15.329 12.581 21.792 46.998 28.905 92.466 22.786 8.119-1.092 16.569-2.61 25.291-4.545-6.423-23.573-11.264-49.889-14.158-78.057-22.951-16.594-43.326-33.95-60.534-51.304-8.562 9.345-16.122 18.632-22.577 27.734-2.209 3.104-6.517 3.829-9.621 1.621-3.104-2.209-3.83-6.517-1.621-9.621 6.919-9.755 15.048-19.709 24.273-29.716-6.549-7.106-12.548-14.185-17.954-21.187-31.518-40.83-43.178-79.656-27.512-106.791 15.675-27.15 55.134-36.473 106.253-29.595 8.764 1.179 17.893 2.834 27.321 4.955 4.608-14.755 9.866-28.263 15.674-40.275 1.655-3.432 5.783-4.872 9.216-3.217 3.432 1.655 4.872 5.783 3.216 9.216-5.414 11.198-10.336 23.79-14.673 37.558 23.623 6.225 48.837 15.195 74.677 26.774 25.847-11.582 51.064-20.55 74.69-26.776-2.685-8.521-5.594-16.598-8.707-24.173-17.426-42.417-40.799-68.655-65.983-68.655-4.828 0-9.544.947-14.112 2.767-4.856 1.934-9.633 4.861-14.294 8.696-2.939 2.418-7.286 1.994-9.703-.945s-1.994-7.286.946-9.703c5.742-4.727 11.748-8.38 17.97-10.859 6.266-2.497 12.68-3.795 19.193-3.795 31.333 0 59.131 29.523 78.74 77.251 3.36 8.18 6.492 16.914 9.37 26.137 9.429-2.121 18.56-3.777 27.324-4.957 50.809-6.835 90.09 2.323 105.95 29.07.233.331.435.685.608 1.055 15.2 27.119 3.489 65.7-27.82 106.263-5.403 6.999-11.401 14.078-17.947 21.18 9.941 10.788 18.617 21.524 25.886 32.028.217.277.416.574.594.89 1.866 3.328.68 7.539-2.648 9.405l-.065.036c-3.328 1.866-7.539.68-9.405-2.648l-.199-.383c-6.691-9.605-14.636-19.438-23.717-29.341-17.207 17.355-37.583 34.712-60.533 51.306-2.895 28.166-7.735 54.484-14.159 78.056 8.722 1.935 17.172 3.452 25.291 4.545 45.46 6.118 79.876-1.004 92.467-22.814l.202-.326c1.919-3.414 3.262-7.104 4.05-11.026.842-4.197 1.049-8.762.653-13.637-.298-3.806 2.546-7.134 6.352-7.432s7.133 2.546 7.432 6.352c.489 6.014.196 11.841-.924 17.419-1.08 5.375-2.934 10.443-5.594 15.149l-.225.422c-15.666 27.136-55.124 36.448-106.251 29.568-8.766-1.179-17.896-2.836-27.325-4.955-2.876 9.223-6.008 17.959-9.368 26.138-19.61 47.727-47.406 77.249-78.739 77.249v-.027c-31.34.001-59.138-29.511-78.74-77.222-3.36-8.181-6.492-16.914-9.37-26.138-9.428 2.12-18.559 3.776-27.323 4.955-51.116 6.879-90.574-2.444-106.25-29.595-3.657-6.335-5.833-13.305-6.619-20.79-.78-7.449-.18-15.399 1.707-23.725zm148.013 52.644c19.669-5.153 40.511-12.288 61.937-21.326-12.402-6.037-24.9-12.661-37.391-19.855-.332-.152-.656-.331-.97-.54-12.54-7.253-24.584-14.801-36.069-22.563 2.885 23.07 7.124 44.681 12.493 64.284zm78.582-28.677c15.723-7.258 31.673-15.502 47.625-24.707l.097-.065c15.986-9.233 31.136-18.942 45.31-28.951 1.578-17.275 2.412-35.243 2.412-53.695h-.027l.027-.008c0-18.451-.835-36.419-2.412-53.695-14.182-10.013-29.337-19.726-45.324-28.956l-.342-.212c-15.867-9.145-31.73-17.339-47.367-24.558-15.688 7.24-31.6 15.464-47.515 24.643l.006.012-.39.226c-15.921 9.199-31.004 18.865-45.11 28.817-1.576 17.274-2.407 35.252-2.407 53.725l-.028.008c0 18.45.835 36.416 2.412 53.689 14.179 10.009 29.33 19.721 45.32 28.952.051.031.358.248.378.216l.155.107c15.804 9.102 31.602 17.262 47.18 24.452zm107.725-64.465c18.537-14.033 35.133-28.51 49.426-42.958-7.809-7.891-16.307-15.796-25.438-23.635-7.576-6.504-15.585-12.959-23.989-19.323.986 13.966 1.504 28.316 1.504 42.955h.028l-.028.008c0 14.638-.517 28.988-1.503 42.953zm58.95-52.949c6.037-6.585 11.575-13.143 16.579-19.626 28.025-36.31 39.067-69.667 26.482-91.465l-.024-.043c-12.611-21.775-47.01-28.886-92.441-22.773-8.12 1.093-16.569 2.61-25.293 4.546 6.421 23.57 11.264 49.885 14.158 78.051 12.288 8.882 23.835 17.981 34.548 27.179 9.307 7.99 17.99 16.059 25.991 24.131zm-88.095-126.113c-19.668 5.154-40.508 12.289-61.934 21.327 12.463 6.068 25.024 12.726 37.578 19.962l.404.215c12.676 7.32 24.848 14.938 36.446 22.773-2.887-23.066-7.127-44.675-12.494-64.277zm-186.33 93.15c-7.853 5.945-15.355 11.967-22.477 18.029-9.694 8.253-18.694 16.591-26.93 24.921 14.294 14.449 30.893 28.926 49.432 42.961-.986-13.964-1.504-28.313-1.504-42.95h-.027c0-14.635.516-28.991 1.506-42.961zm-58.914 32.972c8.433-8.504 17.629-17.011 27.517-25.43 10.282-8.754 21.303-17.406 32.986-25.856 1.588-15.429 3.761-30.311 6.458-44.493 2.225-11.7 4.811-22.925 7.719-33.591-8.721-1.935-17.169-3.452-25.286-4.543-45.47-6.118-79.888.995-92.469 22.786-12.59 21.808-1.547 55.178 26.485 91.493 5.007 6.486 10.549 13.046 16.59 19.634zm75.608-61.847c11.54-7.799 23.638-15.38 36.23-22.657l.235-.12c12.675-7.317 25.359-14.045 37.944-20.171-21.421-9.035-42.259-16.169-61.921-21.321-2.852 10.417-5.387 21.403-7.569 32.877-1.92 10.102-3.568 20.585-4.919 31.392zm182.13 143.647c-11.598 7.836-23.764 15.458-36.436 22.774l-.006-.012-.117.066c-12.65 7.301-25.308 14.014-37.868 20.128 21.427 9.036 42.267 16.171 61.933 21.324 5.368-19.603 9.609-41.213 12.494-64.28zm-91.073 50.738c-25.845 11.582-51.064 20.55-74.693 26.775 2.685 8.521 5.595 16.598 8.708 24.175 17.434 42.434 40.809 68.681 65.984 68.681v-.028c25.183 0 48.556-26.238 65.983-68.653 3.113-7.577 6.024-15.652 8.708-24.175-23.626-6.225-48.845-15.195-74.69-26.775z" fill="#37474f"/><path d="m230.919 218.377c20.779-11.996 47.348-4.878 59.345 15.902 11.996 20.779 4.877 47.348-15.902 59.344-20.779 11.998-47.349 4.878-59.345-15.901-11.997-20.778-4.877-47.349 15.902-59.345z" fill="#2969b0"/><path d="m27.225 287.138c14.92-8.615 33.997-3.503 42.611 11.418 8.614 14.919 3.502 33.997-11.418 42.611-14.921 8.614-33.998 3.502-42.611-11.417-8.614-14.922-3.503-33.998 11.418-42.612z" fill="#fac74e"/><path d="m185.294 14.564c14.765-8.526 33.644-3.466 42.171 11.299 8.525 14.766 3.466 33.645-11.299 42.171-14.767 8.525-33.646 3.466-42.171-11.3-8.527-14.763-3.468-33.645 11.299-42.17z" fill="#2eb683"/><path d="m447.912 290.007c16.769-9.68 38.211-3.936 47.892 12.833s3.936 38.21-12.833 47.891c-16.769 9.682-38.211 3.938-47.892-12.832-9.681-16.768-3.936-38.209 12.833-47.892z" fill="#f462a3"/></g></svg>