<svg id="Layer_1" enable-background="new 0 0 512 512" height="512" viewBox="0 0 512 512" width="512" xmlns="http://www.w3.org/2000/svg"><g><g><path d="m172.764 418.16h-124.645l33.95-128.6h56.755z" fill="#b7d4e2"/><path d="m172.764 418.16h-27.982l-33.951-128.6h27.993z" fill="#99bac6"/><path d="m80.345 158.501h60.197v98.379h-60.197z" fill="#b7d4e2"/><path d="m116.698 158.501h23.844v98.379h-23.844z" fill="#99bac6"/><path d="m212.673 82.73-69.54 69.56-42.569-42.58 69.541-69.57 26.263 26.28z" fill="#b7d4e2"/><path d="m212.673 82.73-69.54 69.56-15.816-15.82 69.051-70.05z" fill="#99bac6"/><path d="m218.817 19.896h173.656v60.219h-173.656z" fill="#b7d4e2"/><path d="m218.817 55.005h173.656v25.11h-173.656z" fill="#99bac6"/></g><g fill="#b7d4e2"><path d="m334.776 200.087 21.842-21.85c.536-.537.814-1.28.762-2.037l-2.9-41.617c-.072-1.026-.735-1.914-1.697-2.275-.963-.36-2.046-.125-2.774.603l-40.887 40.903c-14.482 14.487-14.482 38.06 0 52.547l54.369 54.391c.492.492 1.159.768 1.855.768s1.362-.277 1.855-.768l22.25-22.259c1.024-1.025 1.024-2.685 0-3.709z"/><path d="m501.143 226.36-54.375 54.39c-.49.49-1.16.77-1.849.77-.7 0-1.37-.28-1.86-.77l-8.138-8.14-14.116-14.12c-1.02-1.02-1.02-2.68 0-3.71l54.675-54.69-21.834-21.85c-.54-.54-.82-1.28-.77-2.04l1.999-28.67.9-12.95c.08-1.02.74-1.91 1.7-2.27s2.049-.13 2.779.6l40.889 40.9c14.476 14.49 14.476 38.06 0 52.55z"/></g><path d="m432.712 7.5v93.5c0 4.15-3.359 7.5-7.498 7.5h-40.239c-4.139 0-7.498-3.35-7.498-7.5v-93.5c0-4.14 3.359-7.5 7.498-7.5h40.239c4.139 0 7.498 3.36 7.498 7.5z" fill="#4c7889"/><path d="m432.712 7.5v93.5c0 4.15-3.359 7.5-7.498 7.5h-26.043c4.139 0 7.498-3.35 7.498-7.5v-93.5c0-4.14-3.359-7.5-7.498-7.5h26.043c4.139 0 7.498 3.36 7.498 7.5z" fill="#364c59"/><g><path d="m484.591 338.639v144.04c0 4.14-3.349 7.5-7.498 7.5h-144c-4.149 0-7.498-3.36-7.498-7.5v-144.04c0-4.14 3.349-7.5 7.498-7.5h144c4.148 0 7.498 3.36 7.498 7.5z" fill="#ffc73b"/><path d="m484.591 338.639v144.04c0 4.14-3.349 7.5-7.498 7.5h-22.994c4.149 0 7.498-3.36 7.498-7.5v-144.04c0-4.14-3.349-7.5-7.498-7.5h22.994c4.148 0 7.498 3.36 7.498 7.5z" fill="#ffa73e"/><path d="m442.892 331.139v79.52c0 1.98-1.17 3.78-2.979 4.58-.65.28-1.33.42-2.019.42-1.22 0-2.43-.45-3.369-1.31l-29.432-26.92-29.432 26.92c-1.46 1.34-3.579 1.68-5.389.89-1.809-.8-2.979-2.6-2.979-4.58v-79.52z" fill="#ff5a39"/><path d="m423.629 438.311h-37.072c-4.141 0-7.498 3.358-7.498 7.5s3.356 7.5 7.498 7.5h37.072c4.141 0 7.498-3.358 7.498-7.5s-3.357-7.5-7.498-7.5z" fill="#d1734a"/></g><path d="m199.877 410.66v71.13c0 4.14-3.359 7.5-7.498 7.5h-163.865c-4.149 0-7.498-3.36-7.498-7.5v-71.13c0-4.14 3.349-7.5 7.498-7.5h163.864c4.14 0 7.499 3.36 7.499 7.5z" fill="#3eb1ff"/><path d="m199.877 410.66v71.13c0 4.14-3.359 7.5-7.498 7.5h-34.99c4.139 0 7.498-3.36 7.498-7.5v-71.13c0-4.14-3.359-7.5-7.498-7.5h34.99c4.139 0 7.498 3.36 7.498 7.5z" fill="#4390ff"/><path d="m465.883 150.54c0 33.55-27.272 60.84-60.793 60.84-3.209 0-6.368-.25-9.447-.73-29.052-4.56-51.336-29.78-51.336-60.11s22.284-55.55 51.336-60.11c3.079-.48 6.238-.73 9.447-.73 33.52 0 60.793 27.29 60.793 60.84z" fill="#3eb1ff"/><path d="m465.883 150.54c0 33.55-27.272 60.84-60.793 60.84-3.209 0-6.368-.25-9.447-.73 26.283-4.56 46.437-29.78 46.437-60.11s-20.154-55.55-46.437-60.11c3.079-.48 6.238-.73 9.447-.73 33.52 0 60.793 27.29 60.793 60.84z" fill="#4390ff"/><path d="m434.182 150.54c0 16.05-13.046 29.12-29.092 29.12-2.029 0-4.009-.21-5.918-.61-13.206-2.74-23.174-14.49-23.174-28.51 0-14.03 9.967-25.77 23.174-28.51 1.909-.4 3.889-.61 5.918-.61 16.045 0 29.092 13.06 29.092 29.12z" fill="#d4efff"/><path d="m434.182 150.54c0 16.05-13.046 29.12-29.092 29.12-2.029 0-4.009-.21-5.918-.61 9.077-2.75 15.916-14.49 15.916-28.51 0-14.03-6.838-25.76-15.916-28.51 1.909-.4 3.889-.61 5.918-.61 16.045 0 29.092 13.06 29.092 29.12z" fill="#b7d4e2"/><g><path d="m511.858 496.9c0 4.17-1.689 7.94-4.428 10.68-2.729 2.73-6.507 4.42-10.675 4.42h-481.652c-8.346 0-15.103-6.76-15.103-15.1 0-4.18 1.689-7.95 4.418-10.69 2.739-2.73 6.517-4.42 10.685-4.42h481.653c8.335 0 15.102 6.76 15.102 15.11z" fill="#4c7889"/><path d="m511.858 496.9c0 4.17-1.689 7.94-4.428 10.68-2.729 2.73-6.507 4.42-10.675 4.42h-29.985c4.168 0 7.946-1.69 10.675-4.42 2.739-2.74 4.428-6.51 4.428-10.68 0-8.35-6.767-15.11-15.103-15.11h29.985c8.336 0 15.103 6.76 15.103 15.11z" fill="#364c59"/></g><g><g fill="#4c7889"><path d="m110.444 232.957c-22.159 0-40.188 18.043-40.188 40.222 0 22.178 18.028 40.221 40.188 40.221s40.188-18.043 40.188-40.221c-.001-22.179-18.029-40.222-40.188-40.222z"/><ellipse cx="110.444" cy="142.431" rx="40.188" ry="40.222"/><ellipse cx="202.784" cy="50.005" rx="40.222" ry="40.188" transform="matrix(.002 -1 1 .002 152.412 252.698)"/></g><g fill="#364c59"><path d="m150.627 142.426c0 22.178-18.024 40.227-40.184 40.227-4.486 0-8.802-.74-12.828-2.1 13.838-5.37 23.819-20.428 23.819-38.127 0-17.689-9.981-32.747-23.819-38.117 4.026-1.36 8.343-2.1 12.828-2.1 22.161 0 40.184 18.049 40.184 40.217z"/><path d="m150.627 273.174c0 22.178-18.024 40.227-40.184 40.227-4.486 0-8.802-.74-12.828-2.1 13.838-5.37 23.819-20.428 23.819-38.127 0-17.689-9.981-32.747-23.819-38.117 4.026-1.36 8.343-2.1 12.828-2.1 22.161 0 40.184 18.049 40.184 40.217z"/><path d="m242.967 50c0 22.178-18.024 40.227-40.184 40.227-4.486 0-8.802-.74-12.828-2.1 13.838-5.37 23.819-20.428 23.819-38.127 0-17.689-9.981-32.747-23.819-38.117 4.026-1.36 8.343-2.1 12.828-2.1 22.161 0 40.184 18.049 40.184 40.217z"/></g></g></g></svg>