<svg height="512pt" viewBox="-74 0 512 512" width="512pt" xmlns="http://www.w3.org/2000/svg"><path d="m355.550781 505.449219h-347.550781c-4.417969 0-8-3.582031-8-8v-17.15625c0-4.417969 3.582031-8 8-8h347.550781c4.417969 0 8 3.582031 8 8v17.15625c0 4.417969-3.582031 8-8 8zm0 0" fill="#c4c4ce"/><path d="m353.558594 472.292969h-77.429688c5.519532 0 9.996094 4.5625 9.996094 10.195312v12.765625c0 5.628906-4.476562 10.195313-9.996094 10.195313h77.429688c5.519531 0 9.992187-4.566407 9.992187-10.195313v-12.765625c0-5.632812-4.472656-10.195312-9.992187-10.195312zm0 0" fill="#aeaeb7"/><path d="m164.746094 472.152344v-100.355469c0-4.417969 3.582031-8 8-8h18.058594c4.417968 0 8 3.582031 8 8v100.355469c0 4.417968-3.582032 8-8 8h-18.058594c-4.417969 0-8-3.582032-8-8zm0 0" fill="#c4c4ce"/><path d="m190.75 363.796875h-6.144531v116.355469h6.144531c4.449219 0 8.054688-3.605469 8.054688-8.058594v-100.238281c0-4.449219-3.605469-8.058594-8.054688-8.058594zm0 0" fill="#aeaeb7"/><path d="m214.273438 512h-64.996094c-4.417969 0-8-3.582031-8-8v-30.257812c0-4.417969 3.582031-8 8-8h64.996094c4.417968 0 8 3.582031 8 8v30.257812c0 4.417969-3.578126 8-8 8zm0 0" fill="#aeaeb7"/><path d="m214.21875 465.742188h-17.03125c4.449219 0 8.058594 3.605468 8.058594 8.058593v30.140625c0 4.453125-3.609375 8.058594-8.058594 8.058594h17.03125c4.449219 0 8.054688-3.605469 8.054688-8.058594v-30.140625c0-4.453125-3.605469-8.058593-8.054688-8.058593zm0 0" fill="#8f8f99"/><path d="m329.765625 386.472656h-294.597656c-11.574219 0-20.957031-9.382812-20.957031-20.957031v-344.558594c.003906-11.574219 9.382812-20.957031 20.957031-20.957031h294.597656c11.574219 0 20.957031 9.382812 20.957031 20.957031v344.558594c0 11.574219-9.382812 20.957031-20.957031 20.957031zm0 0" fill="#aeaeb7"/><path d="m329.617188 0h-41.0625c.015624.355469.050781.707031.050781 1.066406v344.257813c0 11.65625-9.449219 21.105469-21.105469 21.105469h-253.234375c.558594 11.160156 9.757813 20.042968 21.054687 20.042968h294.296876c11.65625 0 21.105468-9.453125 21.105468-21.109375v-344.257812c0-11.65625-9.449218-21.105469-21.105468-21.105469zm0 0" fill="#8f8f99"/><g fill="#def4f8"><path d="m160.929688 102.96875h-97.007813c-12.070313 0-21.855469-9.785156-21.855469-21.855469v-3.335937c0-12.070313 9.785156-21.855469 21.855469-21.855469h97.007813c12.070312 0 21.855468 9.785156 21.855468 21.855469v3.335937c0 12.070313-9.785156 21.855469-21.855468 21.855469zm0 0"/><path d="m160.929688 177.617188h-97.007813c-12.070313 0-21.855469-9.785157-21.855469-21.855469v-3.339844c0-12.070313 9.785156-21.855469 21.855469-21.855469h97.007813c12.070312 0 21.855468 9.785156 21.855468 21.855469v3.339844c0 12.070312-9.785156 21.855469-21.855468 21.855469zm0 0"/><path d="m160.929688 251.507812h-97.007813c-12.070313 0-21.855469-9.785156-21.855469-21.855468v-3.339844c0-12.070312 9.785156-21.851562 21.855469-21.851562h97.007813c12.070312 0 21.855468 9.78125 21.855468 21.851562v3.339844c0 12.070312-9.785156 21.855468-21.855468 21.855468zm0 0"/></g><path d="m255.757812 79.445312c0 12.992188-10.53125 23.523438-23.523437 23.523438s-23.523437-10.53125-23.523437-23.523438c0-12.992187 10.53125-23.523437 23.523437-23.523437s23.523437 10.53125 23.523437 23.523437zm0 0" fill="#ffe046"/><path d="m255.757812 153.714844c0 12.988281-10.53125 23.523437-23.523437 23.523437s-23.523437-10.535156-23.523437-23.523437c0-12.992188 10.53125-23.527344 23.523437-23.527344s23.523437 10.535156 23.523437 23.527344zm0 0" fill="#fba72d"/><path d="m255.757812 227.980469c0 12.992187-10.53125 23.527343-23.523437 23.527343s-23.523437-10.535156-23.523437-23.527343c0-12.992188 10.53125-23.523438 23.523437-23.523438s23.523437 10.53125 23.523437 23.523438zm0 0" fill="#95dae8"/><path d="m322.492188 79.445312c0 12.992188-10.53125 23.523438-23.523438 23.523438s-23.523438-10.53125-23.523438-23.523438c0-12.992187 10.53125-23.523437 23.523438-23.523437s23.523438 10.53125 23.523438 23.523437zm0 0" fill="#fba72d"/><path d="m322.492188 153.714844c0 12.988281-10.53125 23.523437-23.523438 23.523437s-23.523438-10.535156-23.523438-23.523437c0-12.992188 10.53125-23.527344 23.523438-23.527344s23.523438 10.535156 23.523438 23.527344zm0 0" fill="#ffe046"/><path d="m322.492188 227.980469c0 12.992187-10.53125 23.527343-23.523438 23.527343s-23.523438-10.535156-23.523438-23.527343c0-12.992188 10.53125-23.523438 23.523438-23.523438s23.523438 10.53125 23.523438 23.523438zm0 0" fill="#ffe046"/><path d="m160.773438 55.921875h-17.03125c12.15625 0 22.011718 9.851563 22.011718 22.011719v3.023437c0 12.15625-9.855468 22.011719-22.011718 22.011719h17.03125c12.15625 0 22.011718-9.855469 22.011718-22.011719v-3.023437c0-12.160156-9.855468-22.011719-22.011718-22.011719zm0 0" fill="#bce8f1"/><path d="m160.773438 130.566406h-17.03125c12.15625 0 22.011718 9.855469 22.011718 22.011719v3.027344c0 12.15625-9.855468 22.011719-22.011718 22.011719h17.03125c12.15625 0 22.011718-9.855469 22.011718-22.011719v-3.027344c0-12.15625-9.855468-22.011719-22.011718-22.011719zm0 0" fill="#bce8f1"/><path d="m160.773438 204.457031h-17.03125c12.15625 0 22.011718 9.855469 22.011718 22.011719v3.027344c0 12.15625-9.855468 22.011718-22.011718 22.011718h17.03125c12.15625 0 22.011718-9.855468 22.011718-22.011718v-3.027344c0-12.15625-9.855468-22.011719-22.011718-22.011719zm0 0" fill="#bce8f1"/><path d="m232.234375 55.921875c-3.003906 0-5.875.566406-8.515625 1.59375 8.785156 3.414063 15.011719 11.941406 15.011719 21.929687 0 9.988282-6.226563 18.515626-15.011719 21.925782 2.640625 1.027344 5.511719 1.597656 8.515625 1.597656 12.992187 0 23.523437-10.53125 23.523437-23.523438.003907-12.992187-10.53125-23.523437-23.523437-23.523437zm0 0" fill="#eec707"/><path d="m232.234375 130.1875c-3.003906 0-5.875.570312-8.515625 1.597656 8.785156 3.410156 15.011719 11.941406 15.011719 21.929688 0 9.984375-6.226563 18.515625-15.011719 21.925781 2.640625 1.027344 5.511719 1.597656 8.515625 1.597656 12.992187 0 23.523437-10.53125 23.523437-23.523437.003907-12.992188-10.53125-23.527344-23.523437-23.527344zm0 0" fill="#fb8723"/><path d="m232.234375 204.457031c-3.003906 0-5.875.570313-8.515625 1.597657 8.785156 3.410156 15.011719 11.9375 15.011719 21.925781s-6.226563 18.515625-15.011719 21.929687c2.640625 1.027344 5.511719 1.597656 8.515625 1.597656 12.992187 0 23.523437-10.53125 23.523437-23.523437.003907-12.996094-10.53125-23.527344-23.523437-23.527344zm0 0" fill="#7cd2e3"/><path d="m298.96875 55.921875c-3.003906 0-5.871094.566406-8.515625 1.59375 8.785156 3.414063 15.011719 11.941406 15.011719 21.929687 0 9.988282-6.226563 18.515626-15.011719 21.925782 2.644531 1.027344 5.511719 1.597656 8.515625 1.597656 12.992188 0 23.523438-10.53125 23.523438-23.523438.003906-12.992187-10.53125-23.523437-23.523438-23.523437zm0 0" fill="#fb8723"/><path d="m298.96875 130.1875c-3.003906 0-5.871094.570312-8.515625 1.597656 8.785156 3.410156 15.011719 11.941406 15.011719 21.929688 0 9.984375-6.226563 18.515625-15.011719 21.925781 2.644531 1.027344 5.511719 1.597656 8.515625 1.597656 12.992188 0 23.523438-10.53125 23.523438-23.523437.003906-12.992188-10.53125-23.527344-23.523438-23.527344zm0 0" fill="#eec707"/><path d="m298.96875 204.457031c-3.003906 0-5.871094.570313-8.515625 1.597657 8.785156 3.410156 15.011719 11.9375 15.011719 21.925781s-6.226563 18.515625-15.011719 21.929687c2.644531 1.027344 5.511719 1.597656 8.515625 1.597656 12.992188 0 23.523438-10.53125 23.523438-23.523437.003906-12.996094-10.53125-23.527344-23.523438-23.527344zm0 0" fill="#eec707"/><path d="m215.980469 311.070312c0 18.507813-15.003907 33.511719-33.511719 33.511719s-33.515625-15.003906-33.515625-33.511719c0-18.511718 15.007813-33.515624 33.515625-33.515624s33.511719 15.003906 33.511719 33.515624zm0 0" fill="#def4f8"/><path d="m182.46875 277.554688c-3.070312 0-6.039062.421874-8.863281 1.195312 14.207031 3.886719 24.652343 16.878906 24.652343 32.320312 0 15.4375-10.445312 28.433594-24.652343 32.320313 2.824219.769531 5.792969 1.191406 8.863281 1.191406 18.507812 0 33.511719-15.003906 33.511719-33.511719 0-18.511718-15.003907-33.515624-33.511719-33.515624zm0 0" fill="#bce8f1"/></svg>