<?xml version="1.0" encoding="iso-8859-1"?>
<!-- Generator: Adobe Illustrator 19.0.0, SVG Export Plug-In . SVG Version: 6.00 Build 0)  -->
<svg version="1.1" id="Layer_1" xmlns="http://www.w3.org/2000/svg" xmlns:xlink="http://www.w3.org/1999/xlink" x="0px" y="0px"
	 viewBox="0 0 512 512" style="enable-background:new 0 0 512 512;" xml:space="preserve">
<polygon style="fill:#B3592B;" points="369.371,37.026 256,37.026 236.645,248.232 256,416.539 369.371,416.539 "/>
<g>
	<rect x="142.629" y="37.026" style="fill:#C75214;" width="113.371" height="379.517"/>
	<polygon style="fill:#C75214;" points="322.453,87.723 256,87.723 236.645,257.636 256,416.539 322.453,416.539 	"/>
</g>
<rect x="189.544" y="87.723" style="fill:#E37E31;" width="66.456" height="328.819"/>
<g>
	<rect x="19.815" y="219.847" style="fill:#DFDFDF;" width="31.347" height="225.917"/>
	<rect x="74.94" y="219.847" style="fill:#DFDFDF;" width="31.347" height="225.917"/>
	<rect x="130.069" y="219.847" style="fill:#DFDFDF;" width="31.347" height="225.917"/>
	<rect x="185.198" y="219.847" style="fill:#DFDFDF;" width="31.347" height="225.917"/>
</g>
<g>
	<rect x="295.455" y="219.847" style="fill:#C1C1C1;" width="31.347" height="225.917"/>
	<rect x="350.584" y="219.847" style="fill:#C1C1C1;" width="31.347" height="225.917"/>
	<rect x="405.713" y="219.847" style="fill:#C1C1C1;" width="31.347" height="225.917"/>
	<rect x="460.842" y="219.847" style="fill:#C1C1C1;" width="31.347" height="225.917"/>
	<polygon style="fill:#C1C1C1;" points="271.673,219.842 256,219.842 245.543,338.256 256,445.757 271.673,445.757 	"/>
</g>
<rect x="240.327" y="219.847" style="fill:#DFDFDF;" width="15.673" height="225.917"/>
<g>
	<polygon style="fill:#9B9B9B;" points="512,204.169 256,204.169 245.543,219.842 256,235.516 512,235.516 	"/>
	<polygon style="fill:#9B9B9B;" points="512,474.974 512,416.539 256,416.539 235.085,445.757 256,474.974 	"/>
</g>
<g>
	<rect y="204.173" style="fill:#C1C1C1;" width="256" height="31.347"/>
	<rect y="416.538" style="fill:#C1C1C1;" width="256" height="58.435"/>
</g>
<g>
</g>
<g>
</g>
<g>
</g>
<g>
</g>
<g>
</g>
<g>
</g>
<g>
</g>
<g>
</g>
<g>
</g>
<g>
</g>
<g>
</g>
<g>
</g>
<g>
</g>
<g>
</g>
<g>
</g>
</svg>
