<svg xmlns="http://www.w3.org/2000/svg" height="591pt" version="1.1" viewBox="-5 1 591 591.60003" width="591pt">
<g id="surface1">
<path d="M 500.441406 0 L 561.683594 0 L 561.683594 61.242188 L 500.441406 61.242188 Z M 500.441406 0 " style=" stroke:none;fill-rule:nonzero;fill:rgb(85.490196%,86.666667%,87.45098%);fill-opacity:1;" />
<path d="M 500.441406 40.828125 L 561.683594 40.828125 L 561.683594 61.242188 L 500.441406 61.242188 Z M 500.441406 40.828125 " style=" stroke:none;fill-rule:nonzero;fill:rgb(78.039216%,79.215686%,80%);fill-opacity:1;" />
<path d="M 480.027344 61.242188 L 480.027344 193.929688 L 582.097656 193.929688 L 582.097656 61.242188 Z M 480.027344 61.242188 " style=" stroke:none;fill-rule:nonzero;fill:rgb(26.27451%,59.607843%,81.960784%);fill-opacity:1;" />
<path d="M 163.613281 592 L 163.613281 367.449219 L 132.992188 336.828125 L 132.992188 296 L 30.925781 296 L 30.925781 336.828125 L 0.304688 367.449219 L 0.304688 592 Z M 163.613281 592 " style=" stroke:none;fill-rule:nonzero;fill:rgb(26.27451%,59.607843%,81.960784%);fill-opacity:1;" />
<path d="M 0.304688 530.757812 L 163.613281 530.757812 L 163.613281 592 L 0.304688 592 Z M 0.304688 530.757812 " style=" stroke:none;fill-rule:nonzero;fill:rgb(71.372549%,72.156863%,72.941176%);fill-opacity:1;" />
<path d="M 30.925781 530.757812 L 51.339844 530.757812 L 51.339844 561.378906 L 30.925781 561.378906 Z M 30.925781 530.757812 " style=" stroke:none;fill-rule:nonzero;fill:rgb(85.490196%,86.666667%,87.45098%);fill-opacity:1;" />
<path d="M 71.75 530.757812 L 92.164062 530.757812 L 92.164062 561.378906 L 71.75 561.378906 Z M 71.75 530.757812 " style=" stroke:none;fill-rule:nonzero;fill:rgb(85.490196%,86.666667%,87.45098%);fill-opacity:1;" />
<path d="M 112.578125 530.757812 L 132.992188 530.757812 L 132.992188 561.378906 L 112.578125 561.378906 Z M 112.578125 530.757812 " style=" stroke:none;fill-rule:nonzero;fill:rgb(85.490196%,86.666667%,87.45098%);fill-opacity:1;" />
<path d="M 413.683594 592 C 337.582031 592 275.890625 530.308594 275.890625 454.207031 L 275.890625 127.585938 C 275.890625 79.675781 237.042969 40.828125 189.132812 40.828125 C 141.21875 40.828125 102.371094 79.675781 102.371094 127.585938 L 102.371094 296 L 61.542969 296 L 61.542969 127.585938 C 61.542969 57.117188 118.664062 0 189.132812 0 C 259.601562 0 316.71875 57.117188 316.71875 127.585938 L 316.71875 454.207031 C 316.71875 507.761719 360.128906 551.171875 413.683594 551.171875 C 467.238281 551.171875 510.648438 507.761719 510.648438 454.207031 L 510.648438 255.171875 L 551.476562 255.171875 L 551.476562 454.207031 C 551.476562 530.308594 489.785156 592 413.683594 592 Z M 413.683594 592 " style=" stroke:none;fill-rule:nonzero;fill:rgb(85.490196%,86.666667%,87.45098%);fill-opacity:1;" />
<path d="M 510.648438 193.929688 L 551.476562 193.929688 L 551.476562 255.171875 L 510.648438 255.171875 Z M 510.648438 193.929688 " style=" stroke:none;fill-rule:nonzero;fill:rgb(26.27451%,59.607843%,81.960784%);fill-opacity:1;" />
<path d="M 510.648438 193.929688 L 551.476562 193.929688 L 551.476562 214.34375 L 510.648438 214.34375 Z M 510.648438 193.929688 " style=" stroke:none;fill-rule:nonzero;fill:rgb(24.313725%,54.901961%,78.039216%);fill-opacity:1;" />
<path d="M 127.347656 399.140625 L 92.164062 381.554688 L 92.164062 357.242188 L 71.75 357.242188 L 71.75 412.175781 L 36.570312 429.761719 C 33.109375 431.488281 30.925781 435.027344 30.925781 438.898438 L 30.925781 459.308594 L 51.339844 459.308594 L 51.339844 445.203125 L 71.75 434.996094 L 71.75 479.722656 L 92.164062 479.722656 L 92.164062 404.378906 L 112.578125 414.585938 L 112.578125 438.898438 L 132.992188 438.898438 L 132.992188 408.277344 C 132.992188 404.40625 130.808594 400.867188 127.347656 399.140625 Z M 127.347656 399.140625 " style=" stroke:none;fill-rule:nonzero;fill:rgb(31.372549%,66.666667%,90.196078%);fill-opacity:1;" />
</g>
</svg>