<svg id="Capa_1" enable-background="new 0 0 512 512" height="512" viewBox="0 0 512 512" width="512" xmlns="http://www.w3.org/2000/svg"><g><path d="m391 210c0 16.5-13.5 30-30 30h-4.501c-16.8 67.2-92.999 88.5-96.599 89.399-1.199.3-2.701.601-3.9.601s-2.701-.3-3.9-.601c-3.6-.899-79.799-22.2-96.599-89.399h-4.501c-16.5 0-30-13.5-30-30s13.5-30 30-30l105-30 105 30c16.5 0 30 13.5 30 30z" fill="#ffe0d6"/><path d="m391 210c0 16.5-13.5 30-30 30h-4.501c-16.8 67.2-92.999 88.5-96.599 89.399-1.199.3-2.701.601-3.9.601v-180l105 30c16.5 0 30 13.5 30 30z" fill="#fdcdbf"/><path d="m421 435v62c0 8.399-6.599 15-15 15h-45l-90-62-120 62h-45c-8.401 0-15-6.601-15-15v-62c0-52.8 39.3-96.601 90-103.801l15 15.901 15-17.1h90s16.8 22.2 17.401 22.2c0-1.199 12.599-21 12.599-21 50.7 7.199 90 51 90 103.8z" fill="#575f64"/><path d="m421 435v62c0 8.399-6.599 15-15 15h-45l-90-62-15 7.5v-127.5h45s16.8 22.2 17.401 22.2c0-1.199 12.599-21 12.599-21 50.7 7.199 90 51 90 103.8z" fill="#474f54"/><path d="m421 165c0 8.399-6.599 15-15 15h-300c-8.401 0-15-6.601-15-15 0-8.401 6.599-15 15-15s15-6.601 15-15c0-59.401 44.099-110.4 102.9-118.801h64.2c58.801 8.401 102.9 59.4 102.9 118.801 0 8.399 6.599 15 15 15s15 6.599 15 15z" fill="#ff9100"/><path d="m421 165c0 8.399-6.599 15-15 15h-150v-163.801h32.1c58.801 8.401 102.9 59.4 102.9 118.801 0 8.399 6.599 15 15 15s15 6.599 15 15z" fill="#ff641a"/><g><g><path d="m211 330v105c0 8.399-6.599 15-15 15s-15-6.601-15-15v-103.801c4.799-.899 9.901-1.199 15-1.199z" fill="#fabe2c"/></g></g><g><path d="m331 331.199v103.801c0 8.399-6.599 15-15 15s-15-6.601-15-15v-105h15c5.099 0 10.201.3 15 1.199z" fill="#ff9100"/></g><g><g><path d="m346 420h-180c-8.401 0-15 6.599-15 15v77h210v-77c0-8.401-6.599-15-15-15z" fill="#fabe2c"/></g></g><path d="m361 435v77h-105v-92h90c8.401 0 15 6.599 15 15z" fill="#ff9100"/><path d="m301 15v90c0 8.399-6.599 15-15 15h-60c-8.401 0-15-6.601-15-15v-90c0-8.401 6.599-15 15-15h60c8.401 0 15 6.599 15 15z" fill="#fabe2c"/><path d="m301 15v90c0 8.399-6.599 15-15 15h-30v-120h30c8.401 0 15 6.599 15 15z" fill="#ff9100"/></g></svg>