<?xml version="1.0" encoding="iso-8859-1"?>
<!-- Generator: Adobe Illustrator 19.0.0, SVG Export Plug-In . SVG Version: 6.00 Build 0)  -->
<svg version="1.1" id="Capa_1" xmlns="http://www.w3.org/2000/svg" xmlns:xlink="http://www.w3.org/1999/xlink" x="0px" y="0px"
	 viewBox="0 0 512.008 512.008" style="enable-background:new 0 0 512.008 512.008;" xml:space="preserve">
<path style="fill:#0000FF;" d="M256.004,278.532c-3.5-0.011-6.946-0.831-10.063-2.406L12.518,159.523
	c-11.146-5.535-15.696-19.055-10.162-30.201c2.188-4.408,5.754-7.974,10.162-10.162L245.941,2.449c6.366-3.194,13.87-3.194,20.236,0
	l233.314,116.712c11.146,5.535,15.696,19.055,10.162,30.201c-2.188,4.408-5.754,7.974-10.162,10.162L266.067,276.235
	C262.939,277.766,259.493,278.553,256.004,278.532z M73.116,139.287l182.888,91.444l182.888-91.444L256.004,48.171L73.116,139.287z"
	/>
<g>
	<path style="fill:#CCCCFF;" d="M256.004,395.243c-3.5-0.011-6.946-0.831-10.063-2.406L12.518,276.235
		c-11.146-5.589-15.653-19.153-10.063-30.299c5.589-11.146,19.153-15.653,30.299-10.063l0,0l223.251,111.571l223.251-111.68
		c11.146-5.589,24.71-1.083,30.299,10.063c5.589,11.146,1.083,24.71-10.063,30.299L266.067,392.837
		C262.95,394.412,259.504,395.232,256.004,395.243z"/>
	<path style="fill:#CCCCFF;" d="M256.004,511.955c-3.5-0.011-6.946-0.831-10.063-2.406L12.518,392.837
		c-11.146-5.589-15.653-19.153-10.063-30.299s19.153-15.653,30.299-10.063l0,0l223.251,111.352l223.251-111.571
		c11.146-5.589,24.71-1.083,30.299,10.063c5.589,11.146,1.083,24.71-10.063,30.299l-233.423,116.93
		C262.95,511.124,259.504,511.944,256.004,511.955z"/>
</g>
<g>
</g>
<g>
</g>
<g>
</g>
<g>
</g>
<g>
</g>
<g>
</g>
<g>
</g>
<g>
</g>
<g>
</g>
<g>
</g>
<g>
</g>
<g>
</g>
<g>
</g>
<g>
</g>
<g>
</g>
</svg>
